PathFileType	3	(X/Y/Z)	/mnt/e/Research/Bio/Osim_support/Data/PSU100/10hz/Subject7/trcs/Take_2_10hz.trc
DataRate	CameraRate	NumFrames	NumMarkers	Units	OrigDataRate	OrigDataStartFrame	OrigNumFrames
50.0	50.0	9	39	mm	50.0	1266	16876	
Frame#	Time	LFHD			RFHD			LBHD			RBHD			C7			T10			CLAV			STRN			RBAK			LSHO			LUPA			LELB			LFRM			LWRA			LWRB			LFIN			RSHO			RUPA			RELB			RFRM			RWRA			RWRB			RFIN			LASI			RASI			LPSI			RPSI			LTHI			LKNE			LTIB			LANK			LHEE			LTOE			RTHI			RKNE			RTIB			RANK			RHEE			RTOE	
	X1	Y1	Z1	X2	Y2	Z2	X3	Y3	Z3	X4	Y4	Z4	X5	Y5	Z5	X6	Y6	Z6	X7	Y7	Z7	X8	Y8	Z8	X9	Y9	Z9	X10	Y10	Z10	X11	Y11	Z11	X12	Y12	Z12	X13	Y13	Z13	X14	Y14	Z14	X15	Y15	Z15	X16	Y16	Z16	X17	Y17	Z17	X18	Y18	Z18	X19	Y19	Z19	X20	Y20	Z20	X21	Y21	Z21	X22	Y22	Z22	X23	Y23	Z23	X24	Y24	Z24	X25	Y25	Z25	X26	Y26	Z26	X27	Y27	Z27	X28	Y28	Z28	X29	Y29	Z29	X30	Y30	Z30	X31	Y31	Z31	X32	Y32	Z32	X33	Y33	Z33	X34	Y34	Z34	X35	Y35	Z35	X36	Y36	Z36	X37	Y37	Z37	X38	Y38	Z38	X39	Y39	Z39
1267	25.32000	791.50600	1441.29000	-219.31800	804.23600	1443.74000	-321.23600	980.19200	1435.64000	-210.46800	974.55800	1434.11000	-314.06300	981.55800	1274.55000	-297.51300	1052.22000	922.77000	-295.00500	863.25600	1185.90000	-255.66500	821.49400	1024.24000	-232.71700	1042.18000	1131.39000	-401.72800	1005.67000	1237.41000	-109.71600	1059.59000	1102.46000	-29.37730	1074.61000	1002.80000	46.62790	960.89300	1043.87000	64.98870	858.03800	1093.53000	-48.39290	859.05100	1118.53000	39.41190	794.37000	1147.68000	6.82699	867.05100	1234.01000	-431.58400	770.68900	1086.61000	-510.68500	716.42700	1016.31000	-540.33400	642.40900	1034.83000	-453.42200	676.13300	1069.86000	-299.19100	600.34600	1096.40000	-333.67300	607.42300	1133.98000	-276.01300	882.74300	775.39200	-107.12100	820.19900	790.54600	-373.52500	1030.74000	772.92100	-148.55900	993.94900	783.48100	-395.21100	885.74900	592.03600	23.92900	851.01600	433.50700	92.06410	813.59300	254.71700	186.72100	714.15600	98.77030	266.12800	685.59300	-0.05097	220.95800	586.28400	209.72400	346.47600	774.09400	574.91000	-410.50000	761.88800	349.52400	-401.38400	909.60800	197.23200	-416.25300	1047.19000	64.82050	-391.79500	1119.11000	15.11420	-324.16400	865.28400	20.50020	-408.46300
1268	25.34000	781.19800	1437.11000	-230.91000	801.94200	1440.89000	-331.70100	968.75500	1435.92000	-207.10800	971.44400	1435.28000	-310.84500	978.96200	1274.78000	-298.71500	1051.54000	922.87100	-296.56200	861.05600	1184.73000	-258.76900	821.11900	1023.08000	-234.47700	1042.79000	1131.71000	-403.11000	1004.15000	1237.34000	-111.78600	1067.28000	1103.75000	-37.53390	1093.60000	1002.53000	33.52850	976.26400	1031.00000	51.62470	870.96400	1076.97000	-61.72190	868.28600	1096.91000	28.29800	809.09300	1132.43000	-4.37856	865.18800	1230.15000	-437.09700	785.82500	1074.77000	-525.09500	741.96300	1002.45000	-560.54800	667.66100	1016.53000	-475.22000	697.34400	1055.10000	-327.88500	623.86300	1077.83000	-357.11800	632.62200	1117.77000	-303.62100	882.67600	774.42100	-109.60000	819.41800	790.24100	-376.00100	1030.60000	772.37400	-151.25900	993.21700	783.51400	-398.04000	886.25800	590.59400	20.88710	851.94500	431.50000	88.80370	814.80600	253.80900	184.82000	715.12300	99.11690	265.67500	685.43300	-0.21008	220.84500	587.56900	210.93500	345.12400	773.41700	574.51800	-412.20200	761.24500	349.45100	-402.51900	909.40200	196.87000	-416.57000	1047.05000	64.74310	-391.87800	1119.12000	15.11770	-324.16400	865.26300	20.50300	-408.44300
1269	25.36000	772.06800	1432.92000	-239.09900	799.10500	1438.69000	-338.44600	957.80500	1435.72000	-203.02900	967.09500	1436.68000	-306.57800	975.28300	1274.90000	-299.83200	1049.31000	922.79900	-298.47600	858.23900	1183.76000	-259.97100	819.07300	1022.23000	-234.34800	1039.33000	1130.84000	-405.47400	1004.06000	1237.56000	-114.38800	1075.70000	1106.62000	-45.40500	1113.42000	1006.87000	22.25410	993.68200	1019.22000	38.87610	887.47500	1057.31000	-73.73600	878.52900	1073.61000	16.44250	820.13800	1104.68000	-16.75950	860.36300	1226.03000	-441.16600	799.81900	1064.97000	-538.32000	766.74300	991.75200	-578.62000	691.48200	997.86300	-490.53000	712.99600	1042.90000	-347.03700	643.27800	1056.31000	-373.66900	653.85500	1097.05000	-323.04100	883.14000	773.51300	-110.70300	816.80100	789.67400	-376.35200	1030.59000	771.90200	-153.70700	990.39000	783.33200	-400.15000	886.58800	589.58300	19.42800	852.26900	430.49600	87.10220	815.01700	253.27200	183.85500	715.21900	99.14660	265.42200	685.40900	-0.32486	220.89400	587.58500	211.39600	344.26200	771.21000	573.66800	-412.04800	759.91300	348.65900	-401.84400	908.69200	196.38700	-416.11200	1046.87000	64.78090	-391.74700	1119.12000	15.11360	-324.15300	865.23600	20.51500	-408.42400
1270	25.38000	763.94600	1428.85000	-242.52200	794.78600	1436.72000	-340.82100	948.01900	1434.55000	-199.09100	961.48800	1437.37000	-302.06500	970.47200	1274.88000	-300.73000	1045.57000	922.37800	-302.07300	854.88700	1182.53000	-259.29900	816.74800	1021.05000	-232.30200	1033.01000	1130.14000	-408.97300	1005.06000	1236.69000	-117.28400	1085.07000	1109.93000	-52.08900	1132.48000	1012.05000	10.55600	1012.17000	1009.04000	26.90210	901.98900	1039.45000	-83.82090	890.73300	1049.38000	5.24406	834.90900	1082.69000	-26.62790	851.90200	1221.69000	-444.02200	810.40600	1057.25000	-549.19900	789.82300	984.36200	-594.40500	714.71600	979.24200	-507.22600	732.08300	1022.72000	-368.51400	662.67500	1029.96000	-388.08600	673.02600	1072.02000	-337.38600	884.82000	772.51200	-111.13800	811.89300	788.58800	-374.90000	1031.32000	772.41200	-157.30200	985.57300	783.91500	-403.07100	888.11900	588.12600	18.15560	853.70900	429.28800	85.64500	815.89000	252.41100	182.86400	715.53100	98.97340	265.19700	685.38200	-0.38276	220.87000	588.08200	211.69500	343.93200	766.79700	572.06500	-410.00200	757.19800	346.90700	-399.68500	907.23700	195.74400	-414.85400	1046.65000	65.01670	-391.45700	1119.12000	15.20170	-324.09300	865.16600	20.50190	-408.37200
1271	25.40000	756.96900	1424.42000	-240.31800	787.86000	1434.11000	-338.53200	940.86400	1433.19000	-196.43800	954.50300	1437.59000	-299.31800	965.61100	1274.30000	-301.57100	1040.83000	921.46800	-307.08300	851.68100	1180.93000	-257.49400	814.79200	1019.76000	-228.98500	1024.92000	1129.47000	-413.00100	1007.05000	1235.99000	-120.06500	1095.19000	1113.40000	-58.59890	1150.80000	1017.26000	-2.25051	1031.55000	998.13200	13.09970	917.59300	1020.09000	-95.51370	905.39600	1025.29000	-6.12823	850.47600	1057.99000	-37.76430	842.27900	1218.22000	-444.52900	819.37900	1053.19000	-556.77500	809.74400	982.02900	-606.48800	737.08600	961.71100	-519.17800	751.88100	1000.58000	-378.70700	680.22100	1000.50000	-398.60000	690.75500	1044.73000	-350.85000	887.18900	771.07700	-111.49300	805.60200	787.16200	-372.73900	1032.05000	770.81800	-162.30900	977.64100	782.23900	-406.41900	890.67200	585.84500	16.27170	856.47700	427.67800	83.69770	817.58100	251.01500	181.36800	716.29200	98.56720	264.85800	685.38300	-0.56934	220.68200	589.78000	212.17800	344.09100	761.09900	569.90400	-407.52800	752.22400	346.30300	-399.71900	905.43200	194.90700	-413.31200	1046.52000	65.38190	-391.10300	1119.03000	15.44290	-324.01000	865.01600	20.37270	-408.23800
1272	25.42000	751.88800	1420.16000	-233.48700	779.60100	1431.30000	-332.44400	936.76400	1431.89000	-194.91600	947.18100	1437.42000	-298.22300	960.57600	1273.38000	-302.29600	1036.46000	920.47400	-312.24300	849.13800	1179.14000	-255.01900	813.49600	1018.21000	-225.67900	1015.12000	1128.85000	-417.65500	1009.56000	1234.54000	-123.08500	1105.40000	1116.17000	-67.15060	1168.37000	1021.98000	-15.88000	1052.06000	985.14500	-2.12848	933.44900	995.32500	-107.73300	922.27100	996.12300	-18.98520	867.39800	1026.60000	-50.38590	834.71900	1217.17000	-441.67500	820.84100	1053.17000	-561.50100	818.82400	986.61100	-621.89500	752.69500	947.80100	-529.92600	772.13800	983.25800	-387.32300	697.77500	967.41700	-402.07500	707.73800	1016.78000	-359.80500	889.37400	769.68300	-112.41100	799.74900	785.99300	-371.16000	1032.71000	769.77700	-167.87600	970.38400	781.38800	-410.62500	892.97200	583.85000	14.19590	858.46200	426.02700	81.34440	819.02300	249.83700	179.66400	717.08200	98.22980	264.24800	685.44000	-0.81219	220.30700	591.61800	212.69100	344.16300	755.87800	567.86200	-405.55700	750.06700	342.84500	-396.04000	903.84200	194.05200	-412.16400	1046.28000	65.68810	-390.80500	1118.97000	15.59990	-323.97400	864.97700	20.19850	-408.09000
1273	25.44000	748.73600	1416.52000	-224.06300	771.92300	1429.07000	-323.87800	934.86200	1429.89000	-193.48600	940.61300	1436.63000	-297.05400	955.61500	1272.51000	-302.88600	1032.58000	919.46600	-316.80300	847.10700	1177.23000	-252.18700	812.85500	1016.27000	-222.28200	1005.06000	1128.16000	-421.61100	1011.88000	1232.80000	-126.10600	1114.77000	1118.22000	-77.23070	1182.98000	1026.07000	-30.16230	1072.27000	970.65000	-16.49610	949.52200	964.14800	-118.50200	941.39400	960.77100	-29.62510	886.40000	990.28600	-59.60420	826.95500	1216.64000	-438.07600	816.46600	1053.60000	-563.99400	820.91100	992.10900	-634.20900	761.16700	937.23400	-539.97900	787.32000	963.44600	-393.90500	711.57100	937.06700	-404.77600	721.00000	989.50900	-366.76500	891.29400	768.27500	-113.12900	794.90300	784.64900	-369.27600	1033.28000	769.48700	-172.37000	964.13200	781.26600	-413.77400	894.26700	582.25100	12.41940	859.56200	424.79900	79.61240	819.70900	249.02000	178.50000	717.31200	98.10680	263.97200	685.46800	-0.96731	220.18900	591.92400	212.83400	343.96600	751.26400	565.97200	-403.59800	747.70200	340.13600	-393.27600	902.36400	193.28100	-410.96200	1045.96000	66.02220	-390.54300	1118.95000	15.82440	-323.89800	865.10200	20.06580	-408.04800
1274	25.46000	747.33000	1413.23000	-212.93800	764.71800	1426.94000	-313.62000	934.62900	1427.78000	-193.28400	934.49500	1435.92000	-296.81400	951.04500	1271.61000	-303.66400	1029.08000	918.65100	-320.75600	845.66900	1175.58000	-249.18400	812.87100	1014.36000	-218.99900	995.35700	1127.64000	-424.43000	1014.37000	1231.44000	-128.06100	1121.79000	1118.91000	-86.05060	1193.27000	1028.31000	-42.67240	1091.08000	954.38100	-26.66910	966.99300	928.14500	-124.25000	962.16500	921.12400	-34.42650	909.92100	951.53800	-62.54450	817.97800	1215.82000	-433.82600	814.34500	1054.58000	-562.54300	824.04600	993.53700	-629.52500	770.92400	925.74100	-542.70200	797.19200	936.39100	-394.66300	720.19800	909.32600	-410.74700	729.85500	962.08400	-374.27000	893.62000	766.95500	-113.38900	790.54600	783.51900	-366.88400	1034.13000	768.48500	-176.00400	958.96300	780.41300	-415.85400	896.15100	580.60600	11.12560	860.79900	423.44400	78.24740	820.50300	248.14400	177.56300	717.63700	97.99880	263.94900	685.49000	-1.00046	220.07300	592.06400	212.66500	344.35000	747.21000	564.32600	-401.20300	744.39500	339.33100	-392.42800	901.09700	192.64100	-409.64800	1045.60000	66.33620	-390.28600	1118.91000	16.05680	-323.82000	865.12200	20.09080	-408.23500
1275	25.48000	748.44200	1411.14000	-199.97400	758.16500	1424.92000	-301.51100	936.83400	1426.90000	-194.81000	928.54800	1434.96000	-298.02300	946.84400	1270.51000	-303.80200	1025.86000	917.66200	-323.50400	844.45500	1174.03000	-245.25500	812.43600	1012.89000	-214.57700	987.09000	1126.99000	-425.42900	1016.60000	1229.92000	-129.04800	1126.54000	1117.47000	-93.20590	1200.61000	1025.50000	-53.91060	1108.58000	935.55900	-34.41910	983.39100	890.49000	-124.32200	984.45700	881.29000	-35.60950	932.24500	914.37000	-61.06960	808.46300	1214.73000	-428.63800	814.14600	1056.51000	-559.21100	826.02300	993.40300	-620.00200	781.54100	911.16400	-543.44200	805.15800	905.82800	-394.57900	727.25500	880.38800	-418.41000	736.50700	933.20900	-381.89500	895.72100	765.67300	-112.55800	786.60900	782.56600	-363.58200	1034.81000	767.44900	-178.54800	953.69500	779.65200	-416.89400	897.79800	578.88500	10.69930	861.50900	421.45400	77.21470	820.77300	246.88300	176.86100	717.19400	97.87510	264.36500	685.40000	-0.72939	220.18800	591.11300	211.66500	345.81200	743.46400	562.88100	-398.28500	741.23100	338.84900	-391.46000	899.90400	192.15200	-408.37800	1045.28000	66.57140	-389.98600	1118.90000	16.18270	-323.83700	864.73200	20.71010	-408.84000
